<svg width="424" height="72" viewBox="0 0 106 18" fill="none" xmlns="http://www.w3.org/2000/svg">
<path d="M5.664 17.072L1.416 2.792C1.304 2.424 1.184 2.16 1.056 2C0.928 1.824 0.704 1.664 0.384 1.52L0.096 1.4V1.16H6.456V1.4L5.952 1.592C5.584 1.736 5.336 1.912 5.208 2.12C5.08 2.328 5.072 2.616 5.184 2.984L7.8 12.968L10.632 4.592L10.08 2.888C9.968 2.552 9.864 2.296 9.768 2.12C9.672 1.944 9.512 1.8 9.288 1.688L8.76 1.4V1.16H14.784V1.4L14.04 1.688C13.72 1.8 13.536 1.968 13.488 2.192C13.456 2.4 13.496 2.672 13.608 3.008L16.656 13.208L19.536 3.2C19.648 2.816 19.688 2.48 19.656 2.192C19.624 1.904 19.424 1.696 19.056 1.568L18.552 1.4V1.16H21.888V1.4L21.264 1.64C20.944 1.752 20.72 1.928 20.592 2.168C20.464 2.408 20.352 2.704 20.256 3.056L16.272 17.072H14.616L11.016 5.792L7.32 17.072H5.664ZM22.6296 17V16.76L23.1816 16.544C23.4536 16.432 23.6376 16.288 23.7336 16.112C23.8456 15.92 23.9016 15.664 23.9016 15.344V2.816C23.9016 2.496 23.8536 2.248 23.7576 2.072C23.6776 1.88 23.4856 1.728 23.1816 1.616L22.6296 1.4V1.16H34.1256L34.2696 4.856H34.0296L32.9976 2.6C32.8536 2.312 32.7016 2.08 32.5416 1.904C32.3816 1.728 32.1416 1.64 31.8216 1.64H27.5016V8.576H30.0696C30.3896 8.576 30.6296 8.496 30.7896 8.336C30.9656 8.16 31.1176 7.928 31.2456 7.64L31.7256 6.68H31.9656V11H31.7256L31.2456 9.992C31.1016 9.704 30.9496 9.48 30.7896 9.32C30.6296 9.144 30.3896 9.056 30.0696 9.056H27.5016V16.52H32.3496C32.6696 16.52 32.9176 16.44 33.0936 16.28C33.2696 16.104 33.4136 15.864 33.5256 15.56L34.5096 13.304H34.7496L34.6056 17H22.6296ZM35.8941 17V16.712L44.2221 1.64H39.6621C39.1341 1.64 38.7021 1.76 38.3661 2C38.0461 2.24 37.7581 2.592 37.5021 3.056L36.3981 5H36.1581L36.3261 1.16H48.0621V1.448L39.7341 16.52H44.9661C45.4941 16.52 45.9101 16.4 46.2141 16.16C46.5341 15.904 46.8221 15.544 47.0781 15.08L48.1101 13.16H48.3501L48.1821 17H35.8941ZM56.79 17.432C55.814 17.432 54.87 17.256 53.958 16.904C53.062 16.552 52.254 16.032 51.534 15.344C50.83 14.64 50.27 13.768 49.854 12.728C49.438 11.688 49.23 10.472 49.23 9.08C49.23 7.704 49.438 6.496 49.854 5.456C50.27 4.416 50.838 3.552 51.558 2.864C52.278 2.16 53.086 1.632 53.982 1.28C54.894 0.911999 55.83 0.727999 56.79 0.727999C57.766 0.727999 58.702 0.903999 59.598 1.256C60.51 1.592 61.318 2.112 62.022 2.816C62.742 3.504 63.31 4.376 63.726 5.432C64.142 6.472 64.35 7.688 64.35 9.08C64.35 10.44 64.142 11.648 63.726 12.704C63.31 13.744 62.742 14.616 62.022 15.32C61.318 16.008 60.51 16.536 59.598 16.904C58.702 17.256 57.766 17.432 56.79 17.432ZM56.79 16.928C57.67 16.928 58.382 16.696 58.926 16.232C59.47 15.752 59.862 14.944 60.102 13.808C60.358 12.656 60.486 11.08 60.486 9.08C60.486 7.064 60.358 5.488 60.102 4.352C59.862 3.2 59.47 2.392 58.926 1.928C58.382 1.448 57.67 1.208 56.79 1.208C55.926 1.208 55.222 1.448 54.678 1.928C54.134 2.392 53.734 3.2 53.478 4.352C53.238 5.488 53.118 7.064 53.118 9.08C53.118 11.08 53.238 12.656 53.478 13.808C53.734 14.944 54.134 15.752 54.678 16.232C55.222 16.696 55.926 16.928 56.79 16.928ZM64.9577 17V16.76L65.4617 16.592C65.7817 16.48 65.9897 16.336 66.0857 16.16C66.1817 15.968 66.2297 15.704 66.2297 15.368V2.816C66.2297 2.496 66.1817 2.248 66.0857 2.072C66.0057 1.88 65.8137 1.728 65.5097 1.616L64.9577 1.4V1.16H71.8217C73.7097 1.16 75.1577 1.52 76.1657 2.24C77.1737 2.944 77.6777 3.928 77.6777 5.192C77.6777 5.896 77.4137 6.6 76.8857 7.304C76.3577 8.008 75.5257 8.552 74.3897 8.936L77.7257 15.56C77.8697 15.832 78.0297 16.056 78.2057 16.232C78.3977 16.392 78.6457 16.536 78.9497 16.664L79.2617 16.784V17H74.9657L71.4137 9.44H69.7817V15.368C69.7817 15.672 69.8297 15.92 69.9257 16.112C70.0217 16.304 70.2217 16.448 70.5257 16.544L71.1017 16.76V17H64.9577ZM69.7817 8.96H70.9337C72.0857 8.96 72.9177 8.656 73.4297 8.048C73.9417 7.424 74.1977 6.504 74.1977 5.288C74.1977 4.056 73.9577 3.144 73.4777 2.552C72.9977 1.944 72.1897 1.64 71.0537 1.64H69.7817V8.96ZM80.028 17V16.76L80.58 16.544C80.852 16.432 81.036 16.288 81.132 16.112C81.244 15.92 81.3 15.664 81.3 15.344V2.816C81.3 2.496 81.252 2.248 81.156 2.072C81.076 1.88 80.884 1.728 80.58 1.616L80.028 1.4V1.16H91.524L91.668 4.856H91.428L90.396 2.6C90.252 2.312 90.1 2.08 89.94 1.904C89.78 1.728 89.54 1.64 89.22 1.64H84.9V8.576H87.468C87.788 8.576 88.028 8.496 88.188 8.336C88.364 8.16 88.516 7.928 88.644 7.64L89.124 6.68H89.364V11H89.124L88.644 9.992C88.5 9.704 88.348 9.48 88.188 9.32C88.028 9.144 87.788 9.056 87.468 9.056H84.9V16.52H89.748C90.068 16.52 90.316 16.44 90.492 16.28C90.668 16.104 90.812 15.864 90.924 15.56L91.908 13.304H92.148L92.004 17H80.028ZM93.3405 17V16.76L93.8925 16.544C94.1645 16.432 94.3485 16.288 94.4445 16.112C94.5565 15.92 94.6125 15.664 94.6125 15.344V2.816C94.6125 2.496 94.5645 2.248 94.4685 2.072C94.3885 1.88 94.1965 1.728 93.8925 1.616L93.3405 1.4V1.16H104.837L104.981 4.856H104.741L103.709 2.6C103.565 2.312 103.413 2.08 103.253 1.904C103.093 1.728 102.853 1.64 102.533 1.64H98.2125V8.576H100.781C101.101 8.576 101.341 8.496 101.501 8.336C101.677 8.16 101.829 7.928 101.957 7.64L102.437 6.68H102.677V11H102.437L101.957 9.992C101.813 9.704 101.661 9.48 101.501 9.32C101.341 9.144 101.101 9.056 100.781 9.056H98.2125V16.52H103.061C103.381 16.52 103.629 16.44 103.805 16.28C103.981 16.104 104.125 15.864 104.237 15.56L105.221 13.304H105.461L105.317 17H93.3405Z" fill="#000"/>
</svg>
